<?xml version="1.0" encoding="UTF-8" standalone="no"?>
<!DOCTYPE svg PUBLIC "-//W3C//DTD SVG 1.1//EN"
 "http://www.w3.org/Graphics/SVG/1.1/DTD/svg11.dtd">
<!-- Generated by graphviz version 2.43.0 (0)
 -->
<!-- Title: network_topology Pages: 1 -->
<svg width="1452pt" height="797pt"
 viewBox="0.00 0.00 1452.00 797.00" xmlns="http://www.w3.org/2000/svg" xmlns:xlink="http://www.w3.org/1999/xlink">
<g id="graph0" class="graph" transform="scale(1 1) rotate(0) translate(4 793)">
<title>network_topology</title>
<g id="clust2" class="cluster">
<title>cluster_legend</title>
<path fill="transparent" stroke="transparent" d="M107,-415C107,-415 275,-415 275,-415 281,-415 287,-421 287,-427 287,-427 287,-599 287,-599 287,-605 281,-611 275,-611 275,-611 107,-611 107,-611 101,-611 95,-605 95,-599 95,-599 95,-427 95,-427 95,-421 101,-415 107,-415"/>
<text text-anchor="middle" x="191" y="-595.8" font-family="Arial" font-size="14.00">Network Connection Types</text>
</g>
<!-- legend_anchor -->
<g id="node1" class="node">
<title>legend_anchor</title>
</g>
<!-- legend -->
<g id="node2" class="node">
<title>legend</title>
<text text-anchor="start" x="107" y="-565.9" font-family="Arial" font-size="12.00" fill="red">────</text>
<text text-anchor="start" x="145" y="-565.9" font-family="Arial" font-size="12.00">Fabric Links (x2)</text>
<text text-anchor="start" x="107" y="-548.9" font-family="Arial" font-size="12.00" fill="purple">&#45; &#45; &#45; &#45;</text>
<text text-anchor="start" x="145" y="-548.9" font-family="Arial" font-size="12.00">MCLAG Peer Links</text>
<text text-anchor="start" x="107" y="-531.9" font-family="Arial" font-size="12.00" fill="purple">────</text>
<text text-anchor="start" x="145" y="-531.9" font-family="Arial" font-size="12.00">MCLAG Session Links</text>
<text text-anchor="start" x="107" y="-514.9" font-family="Arial" font-size="12.00" fill="purple">────</text>
<text text-anchor="start" x="145" y="-514.9" font-family="Arial" font-size="12.00">MCLAG Server Links</text>
<text text-anchor="start" x="107" y="-497.9" font-family="Arial" font-size="12.00" fill="green">────</text>
<text text-anchor="start" x="145" y="-497.9" font-family="Arial" font-size="12.00">Bundled Server Links</text>
<text text-anchor="start" x="107" y="-480.9" font-family="Arial" font-size="12.00" fill="gray">────</text>
<text text-anchor="start" x="145" y="-480.9" font-family="Arial" font-size="12.00">Unbundled Server Links</text>
<text text-anchor="start" x="107" y="-463.9" font-family="Arial" font-size="12.00" fill="orange">&#45; &#45; &#45; &#45;</text>
<text text-anchor="start" x="145" y="-463.9" font-family="Arial" font-size="12.00">ESLAG Server Links</text>
<text text-anchor="start" x="107" y="-446.9" font-family="Arial" font-size="12.00" fill="khaki">&#45; &#45; &#45; &#45;</text>
<text text-anchor="start" x="145" y="-446.9" font-family="Arial" font-size="12.00">Gateway Links</text>
<text text-anchor="start" x="107" y="-429.9" font-family="Arial" font-size="12.00" fill="goldenrod">────</text>
<text text-anchor="start" x="145" y="-429.9" font-family="Arial" font-size="12.00">External Links</text>
</g>
<!-- legend_anchor&#45;&gt;legend -->
<!-- gateway&#45;1 -->
<g id="node3" class="node">
<title>gateway&#45;1</title>
<path fill="#fff2cc" stroke="#d6b656" d="M754.33,-789C754.33,-789 687.67,-789 687.67,-789 682.83,-789 678,-784.17 678,-779.33 678,-779.33 678,-769.67 678,-769.67 678,-764.83 682.83,-760 687.67,-760 687.67,-760 754.33,-760 754.33,-760 759.17,-760 764,-764.83 764,-769.67 764,-769.67 764,-779.33 764,-779.33 764,-784.17 759.17,-789 754.33,-789"/>
<text text-anchor="middle" x="721" y="-771.4" font-family="Arial" font-size="12.00">gateway&#45;1</text>
</g>
<!-- ds4000&#45;01 -->
<g id="node4" class="node">
<title>ds4000&#45;01</title>
<path fill="#f8cecc" stroke="#b85450" d="M655.67,-518.5C655.67,-518.5 592.33,-518.5 592.33,-518.5 586.67,-518.5 581,-512.83 581,-507.17 581,-507.17 581,-495.83 581,-495.83 581,-490.17 586.67,-484.5 592.33,-484.5 592.33,-484.5 655.67,-484.5 655.67,-484.5 661.33,-484.5 667,-490.17 667,-495.83 667,-495.83 667,-507.17 667,-507.17 667,-512.83 661.33,-518.5 655.67,-518.5"/>
<text text-anchor="middle" x="624" y="-504.9" font-family="Arial" font-size="12.00">ds4000&#45;01</text>
<text text-anchor="middle" x="624" y="-491.9" font-family="Arial" font-size="12.00">spine</text>
</g>
<!-- gateway&#45;1&#45;&gt;ds4000&#45;01 -->
<!-- ds4000&#45;02 -->
<g id="node5" class="node">
<title>ds4000&#45;02</title>
<path fill="#f8cecc" stroke="#b85450" d="M849.67,-518.5C849.67,-518.5 786.33,-518.5 786.33,-518.5 780.67,-518.5 775,-512.83 775,-507.17 775,-507.17 775,-495.83 775,-495.83 775,-490.17 780.67,-484.5 786.33,-484.5 786.33,-484.5 849.67,-484.5 849.67,-484.5 855.33,-484.5 861,-490.17 861,-495.83 861,-495.83 861,-507.17 861,-507.17 861,-512.83 855.33,-518.5 849.67,-518.5"/>
<text text-anchor="middle" x="818" y="-504.9" font-family="Arial" font-size="12.00">ds4000&#45;02</text>
<text text-anchor="middle" x="818" y="-491.9" font-family="Arial" font-size="12.00">spine</text>
</g>
<!-- gateway&#45;1&#45;&gt;ds4000&#45;02 -->
<!-- ds4000&#45;01&#45;&gt;gateway&#45;1 -->
<g id="edge20" class="edge">
<title>ds4000&#45;01&#45;&gt;gateway&#45;1</title>
<path fill="none" stroke="khaki" d="M650.24,-518.63C694.92,-567.59 746.86,-713.96 735.18,-759.69"/>
<text text-anchor="middle" x="737.18" y="-737.89" font-family="Arial" font-size="8.00">enp2s1</text>
<text text-anchor="middle" x="662.53" y="-532.51" font-family="Arial" font-size="8.00">E1/20/1</text>
</g>
<!-- ds4000&#45;01&#45;&gt;ds4000&#45;02 -->
<!-- ds3000&#45;01 -->
<g id="node8" class="node">
<title>ds3000&#45;01</title>
<path fill="#dae8fc" stroke="#6c8ebf" d="M460.67,-243C460.67,-243 397.33,-243 397.33,-243 391.67,-243 386,-237.33 386,-231.67 386,-231.67 386,-220.33 386,-220.33 386,-214.67 391.67,-209 397.33,-209 397.33,-209 460.67,-209 460.67,-209 466.33,-209 472,-214.67 472,-220.33 472,-220.33 472,-231.67 472,-231.67 472,-237.33 466.33,-243 460.67,-243"/>
<text text-anchor="middle" x="429" y="-229.4" font-family="Arial" font-size="12.00">ds3000&#45;01</text>
<text text-anchor="middle" x="429" y="-216.4" font-family="Arial" font-size="12.00">server&#45;leaf</text>
</g>
<!-- ds4000&#45;01&#45;&gt;ds3000&#45;01 -->
<g id="edge41" class="edge">
<title>ds4000&#45;01&#45;&gt;ds3000&#45;01</title>
<path fill="none" stroke="red" stroke-width="3" d="M612.39,-484.21C577.7,-435.57 475.16,-291.74 440.55,-243.2"/>
<text text-anchor="middle" x="452.16" y="-257.59" font-family="Arial" font-size="8.00">E1/28,E1/29</text>
<text text-anchor="middle" x="600.78" y="-466.03" font-family="Arial" font-size="8.00">E1/1,E1/2</text>
</g>
<!-- ds3000&#45;02 -->
<g id="node9" class="node">
<title>ds3000&#45;02</title>
<path fill="#dae8fc" stroke="#6c8ebf" d="M654.67,-243C654.67,-243 591.33,-243 591.33,-243 585.67,-243 580,-237.33 580,-231.67 580,-231.67 580,-220.33 580,-220.33 580,-214.67 585.67,-209 591.33,-209 591.33,-209 654.67,-209 654.67,-209 660.33,-209 666,-214.67 666,-220.33 666,-220.33 666,-231.67 666,-231.67 666,-237.33 660.33,-243 654.67,-243"/>
<text text-anchor="middle" x="623" y="-229.4" font-family="Arial" font-size="12.00">ds3000&#45;02</text>
<text text-anchor="middle" x="623" y="-216.4" font-family="Arial" font-size="12.00">server&#45;leaf</text>
</g>
<!-- ds4000&#45;01&#45;&gt;ds3000&#45;02 -->
<g id="edge42" class="edge">
<title>ds4000&#45;01&#45;&gt;ds3000&#45;02</title>
<path fill="none" stroke="red" stroke-width="3" d="M623.94,-484.21C623.76,-435.57 623.24,-291.74 623.06,-243.2"/>
<text text-anchor="middle" x="623.13" y="-261.3" font-family="Arial" font-size="8.00">E1/28,E1/29</text>
<text text-anchor="middle" x="623.87" y="-462.31" font-family="Arial" font-size="8.00">E1/3,E1/4</text>
</g>
<!-- ds3000&#45;03 -->
<g id="node10" class="node">
<title>ds3000&#45;03</title>
<path fill="#dae8fc" stroke="#6c8ebf" d="M848.67,-243C848.67,-243 785.33,-243 785.33,-243 779.67,-243 774,-237.33 774,-231.67 774,-231.67 774,-220.33 774,-220.33 774,-214.67 779.67,-209 785.33,-209 785.33,-209 848.67,-209 848.67,-209 854.33,-209 860,-214.67 860,-220.33 860,-220.33 860,-231.67 860,-231.67 860,-237.33 854.33,-243 848.67,-243"/>
<text text-anchor="middle" x="817" y="-229.4" font-family="Arial" font-size="12.00">ds3000&#45;03</text>
<text text-anchor="middle" x="817" y="-216.4" font-family="Arial" font-size="12.00">server&#45;leaf</text>
</g>
<!-- ds4000&#45;01&#45;&gt;ds3000&#45;03 -->
<g id="edge43" class="edge">
<title>ds4000&#45;01&#45;&gt;ds3000&#45;03</title>
<path fill="none" stroke="red" stroke-width="3" d="M635.5,-484.21C669.82,-435.57 771.32,-291.74 805.57,-243.2"/>
<text text-anchor="middle" x="794.03" y="-257.65" font-family="Arial" font-size="8.00">E1/29,E1/28</text>
<text text-anchor="middle" x="647.03" y="-465.97" font-family="Arial" font-size="8.00">E1/6,E1/5</text>
</g>
<!-- sse&#45;c4632&#45;01 -->
<g id="node11" class="node">
<title>sse&#45;c4632&#45;01</title>
<path fill="#dae8fc" stroke="#6c8ebf" d="M1046.17,-243C1046.17,-243 979.83,-243 979.83,-243 974.17,-243 968.5,-237.33 968.5,-231.67 968.5,-231.67 968.5,-220.33 968.5,-220.33 968.5,-214.67 974.17,-209 979.83,-209 979.83,-209 1046.17,-209 1046.17,-209 1051.83,-209 1057.5,-214.67 1057.5,-220.33 1057.5,-220.33 1057.5,-231.67 1057.5,-231.67 1057.5,-237.33 1051.83,-243 1046.17,-243"/>
<text text-anchor="middle" x="1013" y="-229.4" font-family="Arial" font-size="12.00">sse&#45;c4632&#45;01</text>
<text text-anchor="middle" x="1013" y="-216.4" font-family="Arial" font-size="12.00">server&#45;leaf</text>
</g>
<!-- ds4000&#45;01&#45;&gt;sse&#45;c4632&#45;01 -->
<g id="edge44" class="edge">
<title>ds4000&#45;01&#45;&gt;sse&#45;c4632&#45;01</title>
<path fill="none" stroke="red" stroke-width="3" d="M646.88,-484.41C715.77,-435.98 920.73,-291.87 989.9,-243.24"/>
<text text-anchor="middle" x="973.54" y="-252.84" font-family="Arial" font-size="8.00">E1/28,E1/29</text>
<text text-anchor="middle" x="663.24" y="-471.01" font-family="Arial" font-size="8.00">E1/7,E1/8</text>
</g>
<!-- ds4000&#45;02&#45;&gt;gateway&#45;1 -->
<g id="edge21" class="edge">
<title>ds4000&#45;02&#45;&gt;gateway&#45;1</title>
<path fill="none" stroke="khaki" d="M832.7,-518.63C842.32,-567.59 789.48,-713.96 745.06,-759.69"/>
<text text-anchor="middle" x="757.71" y="-742.3" font-family="Arial" font-size="8.00">enp2s2</text>
<text text-anchor="middle" x="833.94" y="-536.69" font-family="Arial" font-size="8.00">E1/20/1</text>
</g>
<!-- ds4000&#45;02&#45;&gt;ds3000&#45;01 -->
<g id="edge46" class="edge">
<title>ds4000&#45;02&#45;&gt;ds3000&#45;01</title>
<path fill="none" stroke="red" stroke-width="3" d="M795.12,-484.41C726.23,-435.98 521.27,-291.87 452.1,-243.24"/>
<text text-anchor="middle" x="468.46" y="-252.84" font-family="Arial" font-size="8.00">E1/30,E1/31</text>
<text text-anchor="middle" x="778.76" y="-471.01" font-family="Arial" font-size="8.00">E1/1,E1/2</text>
</g>
<!-- ds4000&#45;02&#45;&gt;ds3000&#45;02 -->
<g id="edge47" class="edge">
<title>ds4000&#45;02&#45;&gt;ds3000&#45;02</title>
<path fill="none" stroke="red" stroke-width="3" d="M806.39,-484.21C771.7,-435.57 669.16,-291.74 634.55,-243.2"/>
<text text-anchor="middle" x="646.16" y="-257.59" font-family="Arial" font-size="8.00">E1/30,E1/31</text>
<text text-anchor="middle" x="794.78" y="-466.03" font-family="Arial" font-size="8.00">E1/3,E1/4</text>
</g>
<!-- ds4000&#45;02&#45;&gt;ds3000&#45;03 -->
<g id="edge48" class="edge">
<title>ds4000&#45;02&#45;&gt;ds3000&#45;03</title>
<path fill="none" stroke="red" stroke-width="3" d="M817.94,-484.21C817.76,-435.57 817.24,-291.74 817.06,-243.2"/>
<text text-anchor="middle" x="817.13" y="-261.3" font-family="Arial" font-size="8.00">E1/30,E1/31</text>
<text text-anchor="middle" x="817.87" y="-462.31" font-family="Arial" font-size="8.00">E1/5,E1/6</text>
</g>
<!-- ds4000&#45;02&#45;&gt;sse&#45;c4632&#45;01 -->
<g id="edge45" class="edge">
<title>ds4000&#45;02&#45;&gt;sse&#45;c4632&#45;01</title>
<path fill="none" stroke="red" stroke-width="3" d="M829.61,-484.21C864.3,-435.57 966.84,-291.74 1001.45,-243.2"/>
<text text-anchor="middle" x="989.84" y="-257.59" font-family="Arial" font-size="8.00">E1/30,E1/31</text>
<text text-anchor="middle" x="841.22" y="-466.03" font-family="Arial" font-size="8.00">E1/7,E1/8</text>
</g>
<!-- default -->
<g id="node6" class="node">
<title>default</title>
<path fill="#ffcc99" stroke="#d79b00" d="M463.33,-516C463.33,-516 396.67,-516 396.67,-516 391.83,-516 387,-511.17 387,-506.33 387,-506.33 387,-496.67 387,-496.67 387,-491.83 391.83,-487 396.67,-487 396.67,-487 463.33,-487 463.33,-487 468.17,-487 473,-491.83 473,-496.67 473,-496.67 473,-506.33 473,-506.33 473,-511.17 468.17,-516 463.33,-516"/>
<text text-anchor="middle" x="430" y="-498.4" font-family="Arial" font-size="12.00">default</text>
</g>
<!-- other -->
<g id="node7" class="node">
<title>other</title>
<path fill="#ffcc99" stroke="#d79b00" d="M1045.33,-516C1045.33,-516 978.67,-516 978.67,-516 973.83,-516 969,-511.17 969,-506.33 969,-506.33 969,-496.67 969,-496.67 969,-491.83 973.83,-487 978.67,-487 978.67,-487 1045.33,-487 1045.33,-487 1050.17,-487 1055,-491.83 1055,-496.67 1055,-496.67 1055,-506.33 1055,-506.33 1055,-511.17 1050.17,-516 1045.33,-516"/>
<text text-anchor="middle" x="1012" y="-498.4" font-family="Arial" font-size="12.00">other</text>
</g>
<!-- default&#45;&gt;other -->
<!-- ds3000&#45;01&#45;&gt;default -->
<g id="edge40" class="edge">
<title>ds3000&#45;01&#45;&gt;default</title>
<path fill="none" stroke="goldenrod" d="M429.06,-243.35C429.24,-292.96 429.78,-441.24 429.95,-486.94"/>
<text text-anchor="middle" x="429.13" y="-261.45" font-family="Arial" font-size="8.00">E1/1/1</text>
</g>
<!-- ds3000&#45;01&#45;&gt;ds3000&#45;02 -->
<!-- ds3000&#45;01&#45;&gt;ds3000&#45;02 -->
<g id="edge16" class="edge">
<title>ds3000&#45;01&#45;&gt;ds3000&#45;02</title>
<path fill="none" stroke="blue" stroke-dasharray="5,2" d="M472.2,-221.59C508.13,-218.97 544.06,-218.97 580,-221.6"/>
<text text-anchor="middle" x="560.04" y="-218.39" font-family="Arial" font-size="8.00">E1/32/1</text>
<text text-anchor="middle" x="492.15" y="-218.38" font-family="Arial" font-size="8.00">E1/32/1</text>
</g>
<!-- ds3000&#45;01&#45;&gt;ds3000&#45;02 -->
<g id="edge17" class="edge">
<title>ds3000&#45;01&#45;&gt;ds3000&#45;02</title>
<path fill="none" stroke="blue" stroke-dasharray="5,2" d="M472.2,-226C508.13,-226 544.06,-226 580,-226"/>
<text text-anchor="middle" x="560" y="-224.1" font-family="Arial" font-size="8.00">E1/32/2</text>
<text text-anchor="middle" x="492.2" y="-224.1" font-family="Arial" font-size="8.00">E1/32/2</text>
</g>
<!-- ds3000&#45;01&#45;&gt;ds3000&#45;02 -->
<g id="edge18" class="edge">
<title>ds3000&#45;01&#45;&gt;ds3000&#45;02</title>
<path fill="none" stroke="blue" stroke-dasharray="5,2" d="M472.2,-230.41C508.13,-233.03 544.06,-233.03 580,-230.4"/>
<text text-anchor="middle" x="560.04" y="-229.81" font-family="Arial" font-size="8.00">E1/32/3</text>
<text text-anchor="middle" x="492.15" y="-229.82" font-family="Arial" font-size="8.00">E1/32/3</text>
</g>
<!-- ds3000&#45;01&#45;&gt;ds3000&#45;02 -->
<g id="edge19" class="edge">
<title>ds3000&#45;01&#45;&gt;ds3000&#45;02</title>
<path fill="none" stroke="blue" stroke-dasharray="5,2" d="M472.2,-234.83C508.13,-240.07 544.06,-240.06 580,-234.8"/>
<text text-anchor="middle" x="560.17" y="-235.51" font-family="Arial" font-size="8.00">E1/32/4</text>
<text text-anchor="middle" x="492.03" y="-235.53" font-family="Arial" font-size="8.00">E1/32/4</text>
</g>
<!-- server&#45;3 -->
<g id="node12" class="node">
<title>server&#45;3</title>
<polygon fill="#d5e8d4" stroke="#82b366" points="86,-29 0,-29 0,0 86,0 86,-29"/>
<text text-anchor="middle" x="43" y="-11.4" font-family="Arial" font-size="12.00">server&#45;3</text>
</g>
<!-- ds3000&#45;01&#45;&gt;server&#45;3 -->
<g id="edge26" class="edge">
<title>ds3000&#45;01&#45;&gt;server&#45;3</title>
<path fill="none" stroke="green" d="M385.93,-212.68C291.65,-175.93 91.19,-67.27 46.7,-29.02"/>
<text text-anchor="middle" x="62.65" y="-39.19" font-family="Arial" font-size="8.00">enp2s1</text>
<text text-anchor="middle" x="367.48" y="-203.07" font-family="Arial" font-size="8.00">E1/1/4</text>
</g>
<!-- ds3000&#45;01&#45;&gt;server&#45;3 -->
<g id="edge27" class="edge">
<title>ds3000&#45;01&#45;&gt;server&#45;3</title>
<path fill="none" stroke="green" d="M422.2,-208.91C372.21,-168.57 178.35,-63.8 86.1,-27.83"/>
<text text-anchor="middle" x="104.56" y="-33.64" font-family="Arial" font-size="8.00">enp2s2</text>
<text text-anchor="middle" x="406.04" y="-195.23" font-family="Arial" font-size="8.00">E1/2/2</text>
</g>
<!-- server&#45;1 -->
<g id="node13" class="node">
<title>server&#45;1</title>
<polygon fill="#d5e8d4" stroke="#82b366" points="280,-29 194,-29 194,0 280,0 280,-29"/>
<text text-anchor="middle" x="237" y="-11.4" font-family="Arial" font-size="12.00">server&#45;1</text>
</g>
<!-- ds3000&#45;01&#45;&gt;server&#45;1 -->
<g id="edge22" class="edge">
<title>ds3000&#45;01&#45;&gt;server&#45;1</title>
<path fill="none" stroke="blue" stroke-dasharray="5,2" d="M414.25,-208.91C377.72,-169.05 283.54,-66.28 249.51,-29.14"/>
<text text-anchor="middle" x="263.02" y="-41.99" font-family="Arial" font-size="8.00">enp2s1</text>
<text text-anchor="middle" x="400.74" y="-192.26" font-family="Arial" font-size="8.00">E1/1/2</text>
</g>
<!-- server&#45;2 -->
<g id="node14" class="node">
<title>server&#45;2</title>
<polygon fill="#d5e8d4" stroke="#82b366" points="474,-29 388,-29 388,0 474,0 474,-29"/>
<text text-anchor="middle" x="431" y="-11.4" font-family="Arial" font-size="12.00">server&#45;2</text>
</g>
<!-- ds3000&#45;01&#45;&gt;server&#45;2 -->
<g id="edge24" class="edge">
<title>ds3000&#45;01&#45;&gt;server&#45;2</title>
<path fill="none" stroke="blue" stroke-dasharray="5,2" d="M429.15,-208.91C429.53,-169.05 430.52,-66.28 430.87,-29.14"/>
<text text-anchor="middle" x="430.68" y="-47.24" font-family="Arial" font-size="8.00">enp2s1</text>
<text text-anchor="middle" x="429.34" y="-187.01" font-family="Arial" font-size="8.00">E1/1/3</text>
</g>
<!-- ds3000&#45;02&#45;&gt;default -->
<g id="edge35" class="edge">
<title>ds3000&#45;02&#45;&gt;default</title>
<path fill="none" stroke="goldenrod" d="M611.46,-243.35C576.45,-292.96 471.82,-441.24 439.57,-486.94"/>
<text text-anchor="middle" x="599.93" y="-257.79" font-family="Arial" font-size="8.00">E1/1/1</text>
</g>
<!-- ds3000&#45;02&#45;&gt;ds3000&#45;03 -->
<!-- ds3000&#45;02&#45;&gt;server&#45;1 -->
<g id="edge23" class="edge">
<title>ds3000&#45;02&#45;&gt;server&#45;1</title>
<path fill="none" stroke="blue" stroke-dasharray="5,2" d="M593.35,-208.91C519.91,-169.05 330.56,-66.28 262.14,-29.14"/>
<text text-anchor="middle" x="279.72" y="-36.79" font-family="Arial" font-size="8.00">enp2s2</text>
<text text-anchor="middle" x="575.77" y="-197.47" font-family="Arial" font-size="8.00">E1/1/2</text>
</g>
<!-- ds3000&#45;02&#45;&gt;server&#45;2 -->
<g id="edge25" class="edge">
<title>ds3000&#45;02&#45;&gt;server&#45;2</title>
<path fill="none" stroke="blue" stroke-dasharray="5,2" d="M608.25,-208.91C571.72,-169.05 477.54,-66.28 443.51,-29.14"/>
<text text-anchor="middle" x="457.02" y="-41.99" font-family="Arial" font-size="8.00">enp2s2</text>
<text text-anchor="middle" x="594.74" y="-192.26" font-family="Arial" font-size="8.00">E1/1/3</text>
</g>
<!-- ds3000&#45;03&#45;&gt;default -->
<g id="edge36" class="edge">
<title>ds3000&#45;03&#45;&gt;default</title>
<path fill="none" stroke="goldenrod" d="M793.87,-243.35C723.66,-292.96 513.86,-441.24 449.19,-486.94"/>
<text text-anchor="middle" x="777.54" y="-252.99" font-family="Arial" font-size="8.00">E1/1/4</text>
</g>
<!-- ds3000&#45;03&#45;&gt;other -->
<g id="edge37" class="edge">
<title>ds3000&#45;03&#45;&gt;other</title>
<path fill="none" stroke="goldenrod" d="M828.65,-243.35C864.03,-292.96 969.75,-441.24 1002.33,-486.94"/>
<text text-anchor="middle" x="840.27" y="-257.73" font-family="Arial" font-size="8.00">E1/1/4</text>
</g>
<!-- ds3000&#45;03&#45;&gt;sse&#45;c4632&#45;01 -->
<!-- server&#45;7 -->
<g id="node15" class="node">
<title>server&#45;7</title>
<polygon fill="#d5e8d4" stroke="#82b366" points="668,-29 582,-29 582,0 668,0 668,-29"/>
<text text-anchor="middle" x="625" y="-11.4" font-family="Arial" font-size="12.00">server&#45;7</text>
</g>
<!-- ds3000&#45;03&#45;&gt;server&#45;7 -->
<g id="edge32" class="edge">
<title>ds3000&#45;03&#45;&gt;server&#45;7</title>
<path fill="none" stroke="gray" d="M802.25,-208.91C765.72,-169.05 671.54,-66.28 637.51,-29.14"/>
<text text-anchor="middle" x="651.02" y="-41.99" font-family="Arial" font-size="8.00">enp2s1</text>
<text text-anchor="middle" x="788.74" y="-192.26" font-family="Arial" font-size="8.00">E1/1/1</text>
</g>
<!-- server&#45;8 -->
<g id="node16" class="node">
<title>server&#45;8</title>
<polygon fill="#d5e8d4" stroke="#82b366" points="862,-29 776,-29 776,0 862,0 862,-29"/>
<text text-anchor="middle" x="819" y="-11.4" font-family="Arial" font-size="12.00">server&#45;8</text>
</g>
<!-- ds3000&#45;03&#45;&gt;server&#45;8 -->
<g id="edge33" class="edge">
<title>ds3000&#45;03&#45;&gt;server&#45;8</title>
<path fill="none" stroke="gray" d="M817.15,-208.91C817.53,-169.05 818.52,-66.28 818.87,-29.14"/>
<text text-anchor="middle" x="818.68" y="-47.24" font-family="Arial" font-size="8.00">enp2s1</text>
<text text-anchor="middle" x="817.34" y="-187.01" font-family="Arial" font-size="8.00">E1/1/2</text>
</g>
<!-- server&#45;5 -->
<g id="node17" class="node">
<title>server&#45;5</title>
<polygon fill="#d5e8d4" stroke="#82b366" points="1056,-29 970,-29 970,0 1056,0 1056,-29"/>
<text text-anchor="middle" x="1013" y="-11.4" font-family="Arial" font-size="12.00">server&#45;5</text>
</g>
<!-- ds3000&#45;03&#45;&gt;server&#45;5 -->
<g id="edge28" class="edge">
<title>ds3000&#45;03&#45;&gt;server&#45;5</title>
<path fill="none" stroke="orange" stroke-dasharray="5,2" d="M832.05,-208.91C869.34,-169.05 965.49,-66.28 1000.23,-29.14"/>
<text text-anchor="middle" x="986.57" y="-41.85" font-family="Arial" font-size="8.00">enp2s1</text>
<text text-anchor="middle" x="845.72" y="-192.4" font-family="Arial" font-size="8.00">E1/1/3</text>
</g>
<!-- server&#45;6 -->
<g id="node18" class="node">
<title>server&#45;6</title>
<polygon fill="#d5e8d4" stroke="#82b366" points="1250,-29 1164,-29 1164,0 1250,0 1250,-29"/>
<text text-anchor="middle" x="1207" y="-11.4" font-family="Arial" font-size="12.00">server&#45;6</text>
</g>
<!-- ds3000&#45;03&#45;&gt;server&#45;6 -->
<g id="edge31" class="edge">
<title>ds3000&#45;03&#45;&gt;server&#45;6</title>
<path fill="none" stroke="orange" stroke-dasharray="5,2" d="M846.96,-208.91C921.16,-169.05 1112.47,-66.28 1181.6,-29.14"/>
<text text-anchor="middle" x="1163.98" y="-36.71" font-family="Arial" font-size="8.00">enp2s1</text>
<text text-anchor="middle" x="864.57" y="-197.54" font-family="Arial" font-size="8.00">E1/11/2</text>
</g>
<!-- sse&#45;c4632&#45;01&#45;&gt;default -->
<g id="edge38" class="edge">
<title>sse&#45;c4632&#45;01&#45;&gt;default</title>
<path fill="none" stroke="goldenrod" d="M978.53,-243.17C873.13,-292.61 556.44,-441.18 458.91,-486.94"/>
<text text-anchor="middle" x="960.42" y="-249.77" font-family="Arial" font-size="8.00">E1/1/1</text>
</g>
<!-- sse&#45;c4632&#45;01&#45;&gt;other -->
<g id="edge39" class="edge">
<title>sse&#45;c4632&#45;01&#45;&gt;other</title>
<path fill="none" stroke="goldenrod" d="M1012.94,-243.35C1012.76,-292.96 1012.22,-441.24 1012.05,-486.94"/>
<text text-anchor="middle" x="1012.87" y="-261.45" font-family="Arial" font-size="8.00">E1/1/1</text>
</g>
<!-- sse&#45;c4632&#45;01&#45;&gt;server&#45;5 -->
<g id="edge29" class="edge">
<title>sse&#45;c4632&#45;01&#45;&gt;server&#45;5</title>
<path fill="none" stroke="orange" stroke-dasharray="5,2" d="M1013,-208.91C1013,-169.05 1013,-66.28 1013,-29.14"/>
<text text-anchor="middle" x="1013" y="-47.24" font-family="Arial" font-size="8.00">enp2s2</text>
<text text-anchor="middle" x="1013" y="-187.01" font-family="Arial" font-size="8.00">E1/1/3</text>
</g>
<!-- sse&#45;c4632&#45;01&#45;&gt;server&#45;6 -->
<g id="edge30" class="edge">
<title>sse&#45;c4632&#45;01&#45;&gt;server&#45;6</title>
<path fill="none" stroke="orange" stroke-dasharray="5,2" d="M1027.9,-208.91C1064.81,-169.05 1159.98,-66.28 1194.36,-29.14"/>
<text text-anchor="middle" x="1180.78" y="-41.92" font-family="Arial" font-size="8.00">enp2s2</text>
<text text-anchor="middle" x="1041.49" y="-192.33" font-family="Arial" font-size="8.00">E1/10/4</text>
</g>
<!-- server&#45;9 -->
<g id="node19" class="node">
<title>server&#45;9</title>
<polygon fill="#d5e8d4" stroke="#82b366" points="1444,-29 1358,-29 1358,0 1444,0 1444,-29"/>
<text text-anchor="middle" x="1401" y="-11.4" font-family="Arial" font-size="12.00">server&#45;9</text>
</g>
<!-- sse&#45;c4632&#45;01&#45;&gt;server&#45;9 -->
<g id="edge34" class="edge">
<title>sse&#45;c4632&#45;01&#45;&gt;server&#45;9</title>
<path fill="none" stroke="gray" d="M1042.8,-208.91C1116.62,-169.05 1306.95,-66.28 1375.73,-29.14"/>
<text text-anchor="middle" x="1358.13" y="-36.75" font-family="Arial" font-size="8.00">enp2s1</text>
<text text-anchor="middle" x="1060.4" y="-197.51" font-family="Arial" font-size="8.00">E1/1/2</text>
</g>
<!-- server&#45;3&#45;&gt;server&#45;1 -->
<!-- server&#45;1&#45;&gt;server&#45;2 -->
<!-- server&#45;2&#45;&gt;server&#45;7 -->
<!-- server&#45;7&#45;&gt;server&#45;8 -->
<!-- server&#45;8&#45;&gt;server&#45;5 -->
<!-- server&#45;5&#45;&gt;server&#45;6 -->
<!-- server&#45;6&#45;&gt;server&#45;9 -->
</g>
</svg>
