<?xml version="1.0" encoding="UTF-8" standalone="no"?>
<!DOCTYPE svg PUBLIC "-//W3C//DTD SVG 1.1//EN"
 "http://www.w3.org/Graphics/SVG/1.1/DTD/svg11.dtd">
<!-- Generated by graphviz version 12.2.1 (20241206.2353)
 -->
<!-- Title: network_topology Pages: 1 -->
<svg width="1646pt" height="765pt"
 viewBox="0.00 0.00 1646.40 764.74" xmlns="http://www.w3.org/2000/svg" xmlns:xlink="http://www.w3.org/1999/xlink">
<g id="graph0" class="graph" transform="scale(1 1) rotate(0) translate(4 760.74)">
<title>network_topology</title>
<g id="clust2" class="cluster">
<title>cluster_legend</title>
<path fill="none" stroke="none" d="M111.2,-417.3C111.2,-417.3 277.2,-417.3 277.2,-417.3 283.2,-417.3 289.2,-423.3 289.2,-429.3 289.2,-429.3 289.2,-595.05 289.2,-595.05 289.2,-601.05 283.2,-607.05 277.2,-607.05 277.2,-607.05 111.2,-607.05 111.2,-607.05 105.2,-607.05 99.2,-601.05 99.2,-595.05 99.2,-595.05 99.2,-429.3 99.2,-429.3 99.2,-423.3 105.2,-417.3 111.2,-417.3"/>
<text text-anchor="middle" x="194.2" y="-589.75" font-family="Arial" font-size="14.00">Network Connection Types</text>
</g>
<!-- legend_anchor -->
<g id="node1" class="node">
<title>legend_anchor</title>
</g>
<!-- legend -->
<g id="node2" class="node">
<title>legend</title>
<text text-anchor="start" x="111.2" y="-559.9" font-family="Arial" font-size="12.00" fill="red">────</text>
<text text-anchor="start" x="148.2" y="-559.9" font-family="Arial" font-size="12.00">Fabric Links (x2)</text>
<text text-anchor="start" x="111.2" y="-541.65" font-family="Arial" font-size="12.00" fill="purple">&#45; &#45; &#45; &#45;</text>
<text text-anchor="start" x="148.2" y="-541.65" font-family="Arial" font-size="12.00">MCLAG Peer Links</text>
<text text-anchor="start" x="111.2" y="-523.4" font-family="Arial" font-size="12.00" fill="purple">────</text>
<text text-anchor="start" x="148.2" y="-523.4" font-family="Arial" font-size="12.00">MCLAG Session Links</text>
<text text-anchor="start" x="111.2" y="-505.15" font-family="Arial" font-size="12.00" fill="purple">────</text>
<text text-anchor="start" x="148.2" y="-505.15" font-family="Arial" font-size="12.00">MCLAG Server Links</text>
<text text-anchor="start" x="111.2" y="-486.9" font-family="Arial" font-size="12.00" fill="green">────</text>
<text text-anchor="start" x="148.2" y="-486.9" font-family="Arial" font-size="12.00">Bundled Server Links</text>
<text text-anchor="start" x="111.2" y="-468.65" font-family="Arial" font-size="12.00" fill="gray">────</text>
<text text-anchor="start" x="148.2" y="-468.65" font-family="Arial" font-size="12.00">Unbundled Server Links</text>
<text text-anchor="start" x="111.2" y="-450.4" font-family="Arial" font-size="12.00" fill="orange">&#45; &#45; &#45; &#45;</text>
<text text-anchor="start" x="148.2" y="-450.4" font-family="Arial" font-size="12.00">ESLAG Server Links</text>
<text text-anchor="start" x="111.2" y="-432.15" font-family="Arial" font-size="12.00" fill="goldenrod">────</text>
<text text-anchor="start" x="148.2" y="-432.15" font-family="Arial" font-size="12.00">External Links</text>
</g>
<!-- legend_anchor&#45;&gt;legend -->
<!-- ds4000&#45;01 -->
<g id="node3" class="node">
<title>ds4000&#45;01</title>
<path fill="#f8cecc" stroke="#b85450" d="M657.4,-518.55C657.4,-518.55 595,-518.55 595,-518.55 589,-518.55 583,-512.55 583,-506.55 583,-506.55 583,-494.05 583,-494.05 583,-488.05 589,-482.05 595,-482.05 595,-482.05 657.4,-482.05 657.4,-482.05 663.4,-482.05 669.4,-488.05 669.4,-494.05 669.4,-494.05 669.4,-506.55 669.4,-506.55 669.4,-512.55 663.4,-518.55 657.4,-518.55"/>
<text text-anchor="middle" x="626.2" y="-503.15" font-family="Arial" font-size="12.00">ds4000&#45;01</text>
<text text-anchor="middle" x="626.2" y="-488.9" font-family="Arial" font-size="12.00">spine</text>
</g>
<!-- ds4000&#45;02 -->
<g id="node4" class="node">
<title>ds4000&#45;02</title>
<path fill="#f8cecc" stroke="#b85450" d="M851.4,-518.55C851.4,-518.55 789,-518.55 789,-518.55 783,-518.55 777,-512.55 777,-506.55 777,-506.55 777,-494.05 777,-494.05 777,-488.05 783,-482.05 789,-482.05 789,-482.05 851.4,-482.05 851.4,-482.05 857.4,-482.05 863.4,-488.05 863.4,-494.05 863.4,-494.05 863.4,-506.55 863.4,-506.55 863.4,-512.55 857.4,-518.55 851.4,-518.55"/>
<text text-anchor="middle" x="820.2" y="-503.15" font-family="Arial" font-size="12.00">ds4000&#45;02</text>
<text text-anchor="middle" x="820.2" y="-488.9" font-family="Arial" font-size="12.00">spine</text>
</g>
<!-- ds4000&#45;01&#45;&gt;ds4000&#45;02 -->
<!-- ds3000&#45;01 -->
<g id="node7" class="node">
<title>ds3000&#45;01</title>
<path fill="#dae8fc" stroke="#6c8ebf" d="M462.4,-245.3C462.4,-245.3 400,-245.3 400,-245.3 394,-245.3 388,-239.3 388,-233.3 388,-233.3 388,-220.8 388,-220.8 388,-214.8 394,-208.8 400,-208.8 400,-208.8 462.4,-208.8 462.4,-208.8 468.4,-208.8 474.4,-214.8 474.4,-220.8 474.4,-220.8 474.4,-233.3 474.4,-233.3 474.4,-239.3 468.4,-245.3 462.4,-245.3"/>
<text text-anchor="middle" x="431.2" y="-229.9" font-family="Arial" font-size="12.00">ds3000&#45;01</text>
<text text-anchor="middle" x="431.2" y="-215.65" font-family="Arial" font-size="12.00">server&#45;leaf</text>
</g>
<!-- ds4000&#45;01&#45;&gt;ds3000&#45;01 -->
<g id="edge43" class="edge">
<title>ds4000&#45;01&#45;&gt;ds3000&#45;01</title>
<path fill="none" stroke="red" stroke-width="3" d="M613.71,-481.92C578.57,-433.04 479.16,-294.76 443.84,-245.64"/>
<text text-anchor="middle" x="455.52" y="-259.15" font-family="Arial" font-size="8.00">E1/28,E1/29</text>
<text text-anchor="middle" x="602.03" y="-462.96" font-family="Arial" font-size="8.00">E1/1,E1/2</text>
</g>
<!-- ds3000&#45;02 -->
<g id="node8" class="node">
<title>ds3000&#45;02</title>
<path fill="#dae8fc" stroke="#6c8ebf" d="M656.4,-245.3C656.4,-245.3 594,-245.3 594,-245.3 588,-245.3 582,-239.3 582,-233.3 582,-233.3 582,-220.8 582,-220.8 582,-214.8 588,-208.8 594,-208.8 594,-208.8 656.4,-208.8 656.4,-208.8 662.4,-208.8 668.4,-214.8 668.4,-220.8 668.4,-220.8 668.4,-233.3 668.4,-233.3 668.4,-239.3 662.4,-245.3 656.4,-245.3"/>
<text text-anchor="middle" x="625.2" y="-229.9" font-family="Arial" font-size="12.00">ds3000&#45;02</text>
<text text-anchor="middle" x="625.2" y="-215.65" font-family="Arial" font-size="12.00">server&#45;leaf</text>
</g>
<!-- ds4000&#45;01&#45;&gt;ds3000&#45;02 -->
<g id="edge44" class="edge">
<title>ds4000&#45;01&#45;&gt;ds3000&#45;02</title>
<path fill="none" stroke="red" stroke-width="3" d="M626.14,-481.92C625.96,-433.04 625.45,-294.76 625.26,-245.64"/>
<text text-anchor="middle" x="625.34" y="-262.91" font-family="Arial" font-size="8.00">E1/29,E1/28</text>
<text text-anchor="middle" x="626.06" y="-459.19" font-family="Arial" font-size="8.00">E1/4,E1/3</text>
</g>
<!-- ds3000&#45;03 -->
<g id="node9" class="node">
<title>ds3000&#45;03</title>
<path fill="#dae8fc" stroke="#6c8ebf" d="M850.4,-245.3C850.4,-245.3 788,-245.3 788,-245.3 782,-245.3 776,-239.3 776,-233.3 776,-233.3 776,-220.8 776,-220.8 776,-214.8 782,-208.8 788,-208.8 788,-208.8 850.4,-208.8 850.4,-208.8 856.4,-208.8 862.4,-214.8 862.4,-220.8 862.4,-220.8 862.4,-233.3 862.4,-233.3 862.4,-239.3 856.4,-245.3 850.4,-245.3"/>
<text text-anchor="middle" x="819.2" y="-229.9" font-family="Arial" font-size="12.00">ds3000&#45;03</text>
<text text-anchor="middle" x="819.2" y="-215.65" font-family="Arial" font-size="12.00">server&#45;leaf</text>
</g>
<!-- ds4000&#45;01&#45;&gt;ds3000&#45;03 -->
<g id="edge45" class="edge">
<title>ds4000&#45;01&#45;&gt;ds3000&#45;03</title>
<path fill="none" stroke="red" stroke-width="3" d="M638.57,-481.92C673.34,-433.04 771.73,-294.76 806.69,-245.64"/>
<text text-anchor="middle" x="795.09" y="-259.21" font-family="Arial" font-size="8.00">E1/28,E1/29</text>
<text text-anchor="middle" x="650.16" y="-462.9" font-family="Arial" font-size="8.00">E1/5,E1/6</text>
</g>
<!-- sse&#45;c4632&#45;01 -->
<g id="node10" class="node">
<title>sse&#45;c4632&#45;01</title>
<path fill="#dae8fc" stroke="#6c8ebf" d="M1047.58,-245.3C1047.58,-245.3 982.83,-245.3 982.83,-245.3 976.83,-245.3 970.83,-239.3 970.83,-233.3 970.83,-233.3 970.83,-220.8 970.83,-220.8 970.83,-214.8 976.83,-208.8 982.83,-208.8 982.83,-208.8 1047.58,-208.8 1047.58,-208.8 1053.58,-208.8 1059.58,-214.8 1059.58,-220.8 1059.58,-220.8 1059.58,-233.3 1059.58,-233.3 1059.58,-239.3 1053.58,-245.3 1047.58,-245.3"/>
<text text-anchor="middle" x="1015.2" y="-229.9" font-family="Arial" font-size="12.00">sse&#45;c4632&#45;01</text>
<text text-anchor="middle" x="1015.2" y="-215.65" font-family="Arial" font-size="12.00">server&#45;leaf</text>
</g>
<!-- ds4000&#45;01&#45;&gt;sse&#45;c4632&#45;01 -->
<g id="edge46" class="edge">
<title>ds4000&#45;01&#45;&gt;sse&#45;c4632&#45;01</title>
<path fill="none" stroke="red" stroke-width="3" d="M651.42,-481.71C721.71,-432.7 919.25,-294.95 989.78,-245.77"/>
<text text-anchor="middle" x="973.38" y="-254.49" font-family="Arial" font-size="8.00">E1/29,E1/28</text>
<text text-anchor="middle" x="667.83" y="-467.55" font-family="Arial" font-size="8.00">E1/8,E1/7</text>
</g>
<!-- ds4000&#45;02&#45;&gt;ds3000&#45;01 -->
<g id="edge41" class="edge">
<title>ds4000&#45;02&#45;&gt;ds3000&#45;01</title>
<path fill="none" stroke="red" stroke-width="3" d="M794.98,-481.71C724.69,-432.7 527.15,-294.95 456.62,-245.77"/>
<text text-anchor="middle" x="473.02" y="-254.49" font-family="Arial" font-size="8.00">E1/30,E1/31</text>
<text text-anchor="middle" x="778.57" y="-467.55" font-family="Arial" font-size="8.00">E1/1,E1/2</text>
</g>
<!-- ds4000&#45;02&#45;&gt;ds3000&#45;02 -->
<g id="edge42" class="edge">
<title>ds4000&#45;02&#45;&gt;ds3000&#45;02</title>
<path fill="none" stroke="red" stroke-width="3" d="M807.71,-481.92C772.57,-433.04 673.16,-294.76 637.84,-245.64"/>
<text text-anchor="middle" x="649.52" y="-259.15" font-family="Arial" font-size="8.00">E1/30,E1/31</text>
<text text-anchor="middle" x="796.03" y="-462.96" font-family="Arial" font-size="8.00">E1/3,E1/4</text>
</g>
<!-- ds4000&#45;02&#45;&gt;ds3000&#45;03 -->
<g id="edge39" class="edge">
<title>ds4000&#45;02&#45;&gt;ds3000&#45;03</title>
<path fill="none" stroke="red" stroke-width="3" d="M820.14,-481.92C819.96,-433.04 819.45,-294.76 819.26,-245.64"/>
<text text-anchor="middle" x="819.34" y="-262.91" font-family="Arial" font-size="8.00">E1/30,E1/31</text>
<text text-anchor="middle" x="820.06" y="-459.19" font-family="Arial" font-size="8.00">E1/5,E1/6</text>
</g>
<!-- ds4000&#45;02&#45;&gt;sse&#45;c4632&#45;01 -->
<g id="edge40" class="edge">
<title>ds4000&#45;02&#45;&gt;sse&#45;c4632&#45;01</title>
<path fill="none" stroke="red" stroke-width="3" d="M832.69,-481.92C867.83,-433.04 967.24,-294.76 1002.56,-245.64"/>
<text text-anchor="middle" x="990.88" y="-259.15" font-family="Arial" font-size="8.00">E1/31,E1/30</text>
<text text-anchor="middle" x="844.37" y="-462.96" font-family="Arial" font-size="8.00">E1/8,E1/7</text>
</g>
<!-- default -->
<g id="node5" class="node">
<title>default</title>
<path fill="#ffcc99" stroke="#d79b00" d="M465.8,-514.7C465.8,-514.7 398.6,-514.7 398.6,-514.7 393.8,-514.7 389,-509.9 389,-505.1 389,-505.1 389,-495.5 389,-495.5 389,-490.7 393.8,-485.9 398.6,-485.9 398.6,-485.9 465.8,-485.9 465.8,-485.9 470.6,-485.9 475.4,-490.7 475.4,-495.5 475.4,-495.5 475.4,-505.1 475.4,-505.1 475.4,-509.9 470.6,-514.7 465.8,-514.7"/>
<text text-anchor="middle" x="432.2" y="-496.03" font-family="Arial" font-size="12.00">default</text>
</g>
<!-- other -->
<g id="node6" class="node">
<title>other</title>
<path fill="#ffcc99" stroke="#d79b00" d="M1047.8,-514.7C1047.8,-514.7 980.6,-514.7 980.6,-514.7 975.8,-514.7 971,-509.9 971,-505.1 971,-505.1 971,-495.5 971,-495.5 971,-490.7 975.8,-485.9 980.6,-485.9 980.6,-485.9 1047.8,-485.9 1047.8,-485.9 1052.6,-485.9 1057.4,-490.7 1057.4,-495.5 1057.4,-495.5 1057.4,-505.1 1057.4,-505.1 1057.4,-509.9 1052.6,-514.7 1047.8,-514.7"/>
<text text-anchor="middle" x="1014.2" y="-496.03" font-family="Arial" font-size="12.00">other</text>
</g>
<!-- default&#45;&gt;other -->
<!-- ds3000&#45;01&#45;&gt;default -->
<g id="edge33" class="edge">
<title>ds3000&#45;01&#45;&gt;default</title>
<path fill="none" stroke="goldenrod" d="M431.26,-245.61C431.45,-295.96 431.98,-440.13 432.15,-485.48"/>
<text text-anchor="middle" x="431.34" y="-262.88" font-family="Arial" font-size="8.00">E1/1/1</text>
</g>
<!-- ds3000&#45;01&#45;&gt;ds3000&#45;02 -->
<!-- ds3000&#45;01&#45;&gt;ds3000&#45;02 -->
<g id="edge15" class="edge">
<title>ds3000&#45;01&#45;&gt;ds3000&#45;02</title>
<path fill="none" stroke="blue" stroke-dasharray="5,2" d="M474.77,-222.28C510.42,-219.51 546.07,-219.51 581.72,-222.29"/>
<text text-anchor="middle" x="561.77" y="-218.17" font-family="Arial" font-size="8.00">E1/32/1</text>
<text text-anchor="middle" x="494.73" y="-218.16" font-family="Arial" font-size="8.00">E1/32/1</text>
</g>
<!-- ds3000&#45;01&#45;&gt;ds3000&#45;02 -->
<g id="edge16" class="edge">
<title>ds3000&#45;01&#45;&gt;ds3000&#45;02</title>
<path fill="none" stroke="blue" stroke-dasharray="5,2" d="M474.77,-227.05C510.42,-227.05 546.07,-227.05 581.72,-227.05"/>
<text text-anchor="middle" x="561.72" y="-224.33" font-family="Arial" font-size="8.00">E1/32/2</text>
<text text-anchor="middle" x="494.77" y="-224.33" font-family="Arial" font-size="8.00">E1/32/2</text>
</g>
<!-- ds3000&#45;01&#45;&gt;ds3000&#45;02 -->
<g id="edge17" class="edge">
<title>ds3000&#45;01&#45;&gt;ds3000&#45;02</title>
<path fill="none" stroke="blue" stroke-dasharray="5,2" d="M474.77,-231.82C510.42,-234.59 546.07,-234.59 581.72,-231.81"/>
<text text-anchor="middle" x="561.77" y="-230.48" font-family="Arial" font-size="8.00">E1/32/3</text>
<text text-anchor="middle" x="494.73" y="-230.49" font-family="Arial" font-size="8.00">E1/32/3</text>
</g>
<!-- ds3000&#45;01&#45;&gt;ds3000&#45;02 -->
<g id="edge18" class="edge">
<title>ds3000&#45;01&#45;&gt;ds3000&#45;02</title>
<path fill="none" stroke="blue" stroke-dasharray="5,2" d="M474.77,-236.59C510.42,-242.13 546.07,-242.12 581.72,-236.57"/>
<text text-anchor="middle" x="561.91" y="-236.62" font-family="Arial" font-size="8.00">E1/32/4</text>
<text text-anchor="middle" x="494.58" y="-236.63" font-family="Arial" font-size="8.00">E1/32/4</text>
</g>
<!-- server&#45;3 -->
<g id="node11" class="node">
<title>server&#45;3</title>
<polygon fill="#d5e8d4" stroke="#82b366" points="86.4,-28.8 0,-28.8 0,0 86.4,0 86.4,-28.8"/>
<text text-anchor="middle" x="43.2" y="-10.12" font-family="Arial" font-size="12.00">server&#45;3</text>
</g>
<!-- ds3000&#45;01&#45;&gt;server&#45;3 -->
<g id="edge23" class="edge">
<title>ds3000&#45;01&#45;&gt;server&#45;3</title>
<path fill="none" stroke="green" d="M387.61,-213.5C293.02,-176.48 92.67,-67.87 47.32,-29.24"/>
<text text-anchor="middle" x="63.3" y="-38.54" font-family="Arial" font-size="8.00">enp2s1</text>
<text text-anchor="middle" x="369.17" y="-203.05" font-family="Arial" font-size="8.00">E1/1/4</text>
</g>
<!-- ds3000&#45;01&#45;&gt;server&#45;3 -->
<g id="edge24" class="edge">
<title>ds3000&#45;01&#45;&gt;server&#45;3</title>
<path fill="none" stroke="green" d="M422.46,-208.45C369.51,-166.97 178.53,-63.87 86.83,-27.96"/>
<text text-anchor="middle" x="105.28" y="-32.96" font-family="Arial" font-size="8.00">enp2s2</text>
<text text-anchor="middle" x="406.2" y="-194.09" font-family="Arial" font-size="8.00">E1/2/2</text>
</g>
<!-- server&#45;1 -->
<g id="node12" class="node">
<title>server&#45;1</title>
<polygon fill="#d5e8d4" stroke="#82b366" points="280.4,-28.8 194,-28.8 194,0 280.4,0 280.4,-28.8"/>
<text text-anchor="middle" x="237.2" y="-10.12" font-family="Arial" font-size="12.00">server&#45;1</text>
</g>
<!-- ds3000&#45;01&#45;&gt;server&#45;1 -->
<g id="edge19" class="edge">
<title>ds3000&#45;01&#45;&gt;server&#45;1</title>
<path fill="none" stroke="blue" stroke-dasharray="5,2" d="M414.99,-208.45C377.2,-167.42 283.87,-66.07 249.86,-29.14"/>
<text text-anchor="middle" x="263.41" y="-41.13" font-family="Arial" font-size="8.00">enp2s1</text>
<text text-anchor="middle" x="401.44" y="-191.02" font-family="Arial" font-size="8.00">E1/1/2</text>
</g>
<!-- server&#45;2 -->
<g id="node13" class="node">
<title>server&#45;2</title>
<polygon fill="#d5e8d4" stroke="#82b366" points="474.4,-28.8 388,-28.8 388,0 474.4,0 474.4,-28.8"/>
<text text-anchor="middle" x="431.2" y="-10.12" font-family="Arial" font-size="12.00">server&#45;2</text>
</g>
<!-- ds3000&#45;01&#45;&gt;server&#45;2 -->
<g id="edge22" class="edge">
<title>ds3000&#45;01&#45;&gt;server&#45;2</title>
<path fill="none" stroke="blue" stroke-dasharray="5,2" d="M431.2,-208.45C431.2,-167.42 431.2,-66.07 431.2,-29.14"/>
<text text-anchor="middle" x="431.2" y="-46.42" font-family="Arial" font-size="8.00">enp2s1</text>
<text text-anchor="middle" x="431.2" y="-185.73" font-family="Arial" font-size="8.00">E1/1/3</text>
</g>
<!-- ds3000&#45;02&#45;&gt;default -->
<g id="edge34" class="edge">
<title>ds3000&#45;02&#45;&gt;default</title>
<path fill="none" stroke="goldenrod" d="M612.71,-245.61C576.88,-295.96 474.3,-440.13 442.04,-485.48"/>
<text text-anchor="middle" x="601.11" y="-259.18" font-family="Arial" font-size="8.00">E1/1/1</text>
</g>
<!-- ds3000&#45;02&#45;&gt;ds3000&#45;03 -->
<!-- ds3000&#45;02&#45;&gt;server&#45;1 -->
<g id="edge20" class="edge">
<title>ds3000&#45;02&#45;&gt;server&#45;1</title>
<path fill="none" stroke="blue" stroke-dasharray="5,2" d="M592.79,-208.45C517.2,-167.42 330.53,-66.07 262.51,-29.14"/>
<text text-anchor="middle" x="280.09" y="-35.96" font-family="Arial" font-size="8.00">enp2s2</text>
<text text-anchor="middle" x="575.21" y="-196.18" font-family="Arial" font-size="8.00">E1/1/2</text>
</g>
<!-- ds3000&#45;02&#45;&gt;server&#45;2 -->
<g id="edge21" class="edge">
<title>ds3000&#45;02&#45;&gt;server&#45;2</title>
<path fill="none" stroke="blue" stroke-dasharray="5,2" d="M608.99,-208.45C571.2,-167.42 477.87,-66.07 443.86,-29.14"/>
<text text-anchor="middle" x="457.41" y="-41.13" font-family="Arial" font-size="8.00">enp2s2</text>
<text text-anchor="middle" x="595.44" y="-191.02" font-family="Arial" font-size="8.00">E1/1/3</text>
</g>
<!-- server&#45;4 -->
<g id="node14" class="node">
<title>server&#45;4</title>
<polygon fill="#d5e8d4" stroke="#82b366" points="668.4,-28.8 582,-28.8 582,0 668.4,0 668.4,-28.8"/>
<text text-anchor="middle" x="625.2" y="-10.12" font-family="Arial" font-size="12.00">server&#45;4</text>
</g>
<!-- ds3000&#45;02&#45;&gt;server&#45;4 -->
<g id="edge25" class="edge">
<title>ds3000&#45;02&#45;&gt;server&#45;4</title>
<path fill="none" stroke="gray" d="M625.2,-208.45C625.2,-167.42 625.2,-66.07 625.2,-29.14"/>
<text text-anchor="middle" x="625.2" y="-46.42" font-family="Arial" font-size="8.00">enp2s1</text>
<text text-anchor="middle" x="625.2" y="-185.73" font-family="Arial" font-size="8.00">E1/1/4</text>
</g>
<!-- ds3000&#45;03&#45;&gt;default -->
<g id="edge35" class="edge">
<title>ds3000&#45;03&#45;&gt;default</title>
<path fill="none" stroke="goldenrod" d="M793.9,-245.79C721.83,-296.3 516.54,-440.19 451.92,-485.48"/>
<text text-anchor="middle" x="777.52" y="-254.54" font-family="Arial" font-size="8.00">E1/1/4</text>
</g>
<!-- ds3000&#45;03&#45;&gt;other -->
<g id="edge36" class="edge">
<title>ds3000&#45;03&#45;&gt;other</title>
<path fill="none" stroke="goldenrod" d="M831.82,-245.61C868.02,-295.96 971.66,-440.13 1004.26,-485.48"/>
<text text-anchor="middle" x="843.5" y="-259.12" font-family="Arial" font-size="8.00">E1/1/4</text>
</g>
<!-- ds3000&#45;03&#45;&gt;sse&#45;c4632&#45;01 -->
<!-- server&#45;7 -->
<g id="node15" class="node">
<title>server&#45;7</title>
<polygon fill="#d5e8d4" stroke="#82b366" points="862.4,-28.8 776,-28.8 776,0 862.4,0 862.4,-28.8"/>
<text text-anchor="middle" x="819.2" y="-10.12" font-family="Arial" font-size="12.00">server&#45;7</text>
</g>
<!-- ds3000&#45;03&#45;&gt;server&#45;7 -->
<g id="edge30" class="edge">
<title>ds3000&#45;03&#45;&gt;server&#45;7</title>
<path fill="none" stroke="gray" d="M819.2,-208.45C819.2,-167.42 819.2,-66.07 819.2,-29.14"/>
<text text-anchor="middle" x="819.2" y="-46.42" font-family="Arial" font-size="8.00">enp2s1</text>
<text text-anchor="middle" x="819.2" y="-185.73" font-family="Arial" font-size="8.00">E1/1/1</text>
</g>
<!-- server&#45;8 -->
<g id="node16" class="node">
<title>server&#45;8</title>
<polygon fill="#d5e8d4" stroke="#82b366" points="1056.4,-28.8 970,-28.8 970,0 1056.4,0 1056.4,-28.8"/>
<text text-anchor="middle" x="1013.2" y="-10.12" font-family="Arial" font-size="12.00">server&#45;8</text>
</g>
<!-- ds3000&#45;03&#45;&gt;server&#45;8 -->
<g id="edge31" class="edge">
<title>ds3000&#45;03&#45;&gt;server&#45;8</title>
<path fill="none" stroke="gray" d="M835.41,-208.45C873.2,-167.42 966.53,-66.07 1000.54,-29.14"/>
<text text-anchor="middle" x="986.99" y="-41.13" font-family="Arial" font-size="8.00">enp2s1</text>
<text text-anchor="middle" x="848.96" y="-191.02" font-family="Arial" font-size="8.00">E1/1/2</text>
</g>
<!-- server&#45;5 -->
<g id="node17" class="node">
<title>server&#45;5</title>
<polygon fill="#d5e8d4" stroke="#82b366" points="1250.4,-28.8 1164,-28.8 1164,0 1250.4,0 1250.4,-28.8"/>
<text text-anchor="middle" x="1207.2" y="-10.12" font-family="Arial" font-size="12.00">server&#45;5</text>
</g>
<!-- ds3000&#45;03&#45;&gt;server&#45;5 -->
<g id="edge26" class="edge">
<title>ds3000&#45;03&#45;&gt;server&#45;5</title>
<path fill="none" stroke="orange" stroke-dasharray="5,2" d="M851.61,-208.45C927.2,-167.42 1113.87,-66.07 1181.89,-29.14"/>
<text text-anchor="middle" x="1164.31" y="-35.96" font-family="Arial" font-size="8.00">enp2s1</text>
<text text-anchor="middle" x="869.19" y="-196.18" font-family="Arial" font-size="8.00">E1/1/3</text>
</g>
<!-- server&#45;6 -->
<g id="node18" class="node">
<title>server&#45;6</title>
<polygon fill="#d5e8d4" stroke="#82b366" points="1444.4,-28.8 1358,-28.8 1358,0 1444.4,0 1444.4,-28.8"/>
<text text-anchor="middle" x="1401.2" y="-10.12" font-family="Arial" font-size="12.00">server&#45;6</text>
</g>
<!-- ds3000&#45;03&#45;&gt;server&#45;6 -->
<g id="edge28" class="edge">
<title>ds3000&#45;03&#45;&gt;server&#45;6</title>
<path fill="none" stroke="orange" stroke-dasharray="5,2" d="M862.47,-210.39C972.06,-170.72 1259.21,-66.79 1363.04,-29.21"/>
<text text-anchor="middle" x="1344.24" y="-33.29" font-family="Arial" font-size="8.00">enp2s1</text>
<text text-anchor="middle" x="881.28" y="-200.86" font-family="Arial" font-size="8.00">E1/11/2</text>
</g>
<!-- sse&#45;c4632&#45;01&#45;&gt;default -->
<g id="edge37" class="edge">
<title>sse&#45;c4632&#45;01&#45;&gt;default</title>
<path fill="none" stroke="goldenrod" d="M977.08,-245.79C868.51,-296.3 559.25,-440.19 461.91,-485.48"/>
<text text-anchor="middle" x="958.95" y="-251.5" font-family="Arial" font-size="8.00">E1/1/1</text>
</g>
<!-- sse&#45;c4632&#45;01&#45;&gt;other -->
<g id="edge38" class="edge">
<title>sse&#45;c4632&#45;01&#45;&gt;other</title>
<path fill="none" stroke="goldenrod" d="M1015.14,-245.61C1014.95,-295.96 1014.42,-440.13 1014.25,-485.48"/>
<text text-anchor="middle" x="1015.06" y="-262.88" font-family="Arial" font-size="8.00">E1/1/1</text>
</g>
<!-- sse&#45;c4632&#45;01&#45;&gt;server&#45;5 -->
<g id="edge27" class="edge">
<title>sse&#45;c4632&#45;01&#45;&gt;server&#45;5</title>
<path fill="none" stroke="orange" stroke-dasharray="5,2" d="M1031.24,-208.45C1068.64,-167.42 1161.02,-66.07 1194.67,-29.14"/>
<text text-anchor="middle" x="1181.2" y="-41.2" font-family="Arial" font-size="8.00">enp2s2</text>
<text text-anchor="middle" x="1044.71" y="-190.95" font-family="Arial" font-size="8.00">E1/1/3</text>
</g>
<!-- sse&#45;c4632&#45;01&#45;&gt;server&#45;6 -->
<g id="edge29" class="edge">
<title>sse&#45;c4632&#45;01&#45;&gt;server&#45;6</title>
<path fill="none" stroke="orange" stroke-dasharray="5,2" d="M1047.45,-208.45C1122.64,-167.42 1308.35,-66.07 1376.02,-29.14"/>
<text text-anchor="middle" x="1358.46" y="-36" font-family="Arial" font-size="8.00">enp2s2</text>
<text text-anchor="middle" x="1065" y="-196.15" font-family="Arial" font-size="8.00">E1/10/4</text>
</g>
<!-- server&#45;9 -->
<g id="node19" class="node">
<title>server&#45;9</title>
<polygon fill="#d5e8d4" stroke="#82b366" points="1638.4,-28.8 1552,-28.8 1552,0 1638.4,0 1638.4,-28.8"/>
<text text-anchor="middle" x="1595.2" y="-10.12" font-family="Arial" font-size="12.00">server&#45;9</text>
</g>
<!-- sse&#45;c4632&#45;01&#45;&gt;server&#45;9 -->
<g id="edge32" class="edge">
<title>sse&#45;c4632&#45;01&#45;&gt;server&#45;9</title>
<path fill="none" stroke="gray" d="M1059.75,-209.87C1169.96,-169.84 1453.93,-66.71 1557.05,-29.25"/>
<text text-anchor="middle" x="1538.25" y="-33.36" font-family="Arial" font-size="8.00">enp2s1</text>
<text text-anchor="middle" x="1078.55" y="-200.32" font-family="Arial" font-size="8.00">E1/1/2</text>
</g>
<!-- server&#45;3&#45;&gt;server&#45;1 -->
<!-- server&#45;1&#45;&gt;server&#45;2 -->
<!-- server&#45;2&#45;&gt;server&#45;4 -->
<!-- server&#45;4&#45;&gt;server&#45;7 -->
<!-- server&#45;7&#45;&gt;server&#45;8 -->
<!-- server&#45;8&#45;&gt;server&#45;5 -->
<!-- server&#45;5&#45;&gt;server&#45;6 -->
<!-- server&#45;6&#45;&gt;server&#45;9 -->
</g>
</svg>
